<svg width="404" height="275" viewBox="0 0 404 275" fill="none" xmlns="http://www.w3.org/2000/svg">
<g clip-path="url(#clip0_1812_3874)">
<path d="M5.37268 21.1225H110.317C111.741 21.1241 113.107 21.6909 114.114 22.6987C115.121 23.7065 115.688 25.0728 115.689 26.498V182.195C115.688 183.62 115.121 184.986 114.114 185.994C113.107 187.002 111.741 187.569 110.317 187.57H5.37268C3.94824 187.569 2.58261 187.002 1.57538 185.994C0.568145 184.986 0.0015708 183.62 -3.05176e-05 182.195V26.498C0.00157964 25.0728 0.568154 23.7064 1.57538 22.6987C2.58262 21.6909 3.94824 21.1241 5.37268 21.1225Z" fill="#F2F2F2"/>
<path d="M6.67516 25.0319H109.014C109.748 25.0327 110.451 25.3248 110.97 25.8439C111.489 26.3631 111.781 27.0669 111.782 27.8011V180.892C111.781 181.626 111.489 182.33 110.97 182.849C110.451 183.368 109.748 183.66 109.014 183.661H6.67516C5.94136 183.66 5.23784 183.368 4.71897 182.849C4.20009 182.33 3.90823 181.626 3.90741 180.892V27.8011C3.90823 27.0669 4.20009 26.3631 4.71897 25.8439C5.23784 25.3248 5.94136 25.0327 6.67516 25.0319Z" fill="white"/>
<path d="M77.794 82.2117C77.794 92.0534 68.6985 90.5648 57.4787 90.5648C46.2588 90.5648 37.1634 92.0534 37.1634 82.2117C37.1634 72.3699 41.6063 54.9247 57.4787 54.9247C73.8979 54.9247 77.794 72.3699 77.794 82.2117Z" fill="#2F2E41"/>
<path d="M101.693 165.519C102.1 164.745 102.332 163.892 102.374 163.018C102.415 162.144 102.265 161.272 101.933 160.463C101.601 159.654 101.096 158.928 100.453 158.335C99.8104 157.742 99.0455 157.298 98.2125 157.033L74.9382 107.772L64.2919 115.241L90.5174 161.314C90.1653 162.744 90.3497 164.253 91.0354 165.556C91.7212 166.859 92.8609 167.865 94.2383 168.383C95.6158 168.901 97.1355 168.896 98.5094 168.368C99.8833 167.841 101.016 166.827 101.693 165.519Z" fill="#A0616A"/>
<path d="M81.4403 112.099L80.11 110.017L79.4311 108.947L74.2047 100.75C73.3999 98.9506 71.915 97.5438 70.0753 96.8379C68.2356 96.132 66.1912 96.1846 64.3902 96.9842C62.5892 97.7839 61.1786 99.2652 60.4674 101.104C59.7562 102.942 59.8025 104.988 60.5961 106.792L61.793 111.063L64.2362 119.795C64.3845 120.333 64.7004 120.809 65.1379 121.154C65.3036 121.293 65.487 121.409 65.6834 121.499C66.0252 121.661 66.3976 121.748 66.7756 121.755C67.1537 121.761 67.5289 121.688 67.8763 121.538C67.8874 121.533 67.9043 121.527 67.9154 121.522L74.2381 118.693L74.2493 118.687L79.0748 116.526L80.2771 115.992C80.6219 115.838 80.9295 115.612 81.1789 115.329C81.443 115.037 81.6371 114.688 81.7463 114.31C81.8592 113.941 81.8903 113.553 81.8374 113.171C81.7846 112.789 81.649 112.423 81.4403 112.099Z" fill="#CCCCCC"/>
<path d="M48.0841 181.943C47.8477 181.55 47.5147 181.225 47.1169 180.997C46.7192 180.77 46.2698 180.648 45.8118 180.644C45.3537 180.639 44.9021 180.752 44.4999 180.972C44.0978 181.191 43.7586 181.51 43.5146 181.898C43.4091 182.057 43.3249 182.229 43.2643 182.41L42.9468 183.285H48.8912L48.0841 181.943Z" fill="#2F2E41"/>
<path d="M57.3508 89.9999C64.9007 89.9999 71.0211 83.8763 71.0211 76.3224C71.0211 68.7685 64.9007 62.6449 57.3508 62.6449C49.8009 62.6449 43.6805 68.7685 43.6805 76.3224C43.6805 83.8763 49.8009 89.9999 57.3508 89.9999Z" fill="#A0616A"/>
<path d="M81.3123 116.777C81.2789 116.287 81.2343 115.802 81.1789 115.329C80.9813 113.53 80.6236 111.752 80.11 110.017C80.0043 109.638 79.8874 109.27 79.7594 108.908C78.1319 104.11 75.3038 99.8077 71.5444 96.412C70.0559 95.0776 68.1274 94.3399 66.1288 94.3405H46.8709C45.6884 94.3406 44.5201 94.5992 43.448 95.0983C42.3758 95.5973 41.4255 96.3248 40.6637 97.2297C39.9019 98.1346 39.3469 99.1951 39.0375 100.337C38.7281 101.479 38.6719 102.675 38.8727 103.841C38.867 103.846 38.867 103.846 38.8727 103.852C39.0086 104.63 39.2581 105.385 39.613 106.091L40.3922 107.644L45.6129 118.091L52.1082 131.089L52.4868 131.846L76.6927 138.506L76.7928 138.278C76.8819 138.078 76.9765 137.872 77.0599 137.671C77.1936 137.37 77.3216 137.07 77.4496 136.774C79.6055 131.868 80.9153 126.632 81.3235 121.288V121.282C81.4146 119.782 81.4108 118.277 81.3123 116.777Z" fill="#3F3D56"/>
<path d="M77.4496 136.774C77.3674 136.491 77.2375 136.224 77.0656 135.984C76.4423 135.15 75.6974 134.414 74.8559 133.801L74.8504 133.795C71.9172 131.568 66.0954 128.973 54.8468 128.906H54.83C54.3145 128.906 53.81 129.055 53.3768 129.334C52.9435 129.614 52.5997 130.012 52.3865 130.482L52.1082 131.089L50.3161 135.031C50.1633 135.369 49.9231 135.659 49.6204 135.872C46.7764 137.888 33.0009 149.193 41.0879 174.013C41.8782 176.435 42.6908 179.08 43.5146 181.898C43.6483 182.355 43.7819 182.817 43.9154 183.285H68.1603L67.6426 179.387C67.608 179.132 67.6213 178.873 67.6817 178.624L77.4385 138.339L77.4831 138.167C77.5946 137.708 77.5831 137.227 77.4496 136.774Z" fill="#2F2E41"/>
<path d="M85.0581 91.6786H95.6332C96.0761 91.6786 96.5008 91.8546 96.8139 92.1679C97.127 92.4812 97.303 92.9061 97.303 93.3492V96.1336C97.4504 96.134 97.5917 96.1928 97.696 96.2972C97.8003 96.4015 97.8591 96.5429 97.8595 96.6904V97.8042C97.8591 97.9518 97.8003 98.0931 97.696 98.1975C97.5917 98.3018 97.4504 98.3606 97.303 98.3611V99.4748C97.4504 99.4753 97.5917 99.5341 97.696 99.6384C97.8003 99.7428 97.8591 99.8842 97.8595 100.032V101.145C97.8591 101.293 97.8003 101.434 97.696 101.539C97.5917 101.643 97.4504 101.702 97.303 101.702V116.738C97.303 117.181 97.127 117.606 96.8139 117.919C96.5008 118.233 96.0761 118.409 95.6332 118.409H85.0581C84.6153 118.409 84.1906 118.233 83.8774 117.919C83.5643 117.606 83.3884 117.181 83.3884 116.738V93.3492C83.3884 92.9061 83.5643 92.4812 83.8774 92.1679C84.1906 91.8546 84.6153 91.6786 85.0581 91.6786Z" fill="#3F3D56"/>
<path d="M84.5015 116.738V93.3492C84.5015 92.9061 84.6775 92.4812 84.9906 92.1679C85.3037 91.8546 85.7284 91.6786 86.1713 91.6786H85.0581C84.6152 91.6786 84.1906 91.8546 83.8774 92.1679C83.5643 92.4812 83.3883 92.9061 83.3883 93.3492V116.738C83.3883 117.181 83.5643 117.606 83.8774 117.919C84.1906 118.233 84.6152 118.409 85.0581 118.409H86.1713C85.7284 118.409 85.3037 118.233 84.9906 117.919C84.6775 117.606 84.5015 117.181 84.5015 116.738Z" fill="#6496FB"/>
<path d="M90.0674 101.702C91.2969 101.702 92.2937 100.705 92.2937 99.4749C92.2937 98.2446 91.2969 97.2473 90.0674 97.2473C88.8378 97.2473 87.841 98.2446 87.841 99.4749C87.841 100.705 88.8378 101.702 90.0674 101.702Z" fill="white"/>
<path d="M87.2426 107.279C87.0618 107.528 86.9009 107.791 86.7615 108.066L59.3557 111.36L55.3256 105.998L46.4421 111.025L52.6546 121.212C53.1565 122.035 53.9116 122.673 54.8067 123.03C55.7017 123.387 56.6884 123.444 57.6185 123.192L87.9319 114.986C88.7933 115.802 89.8827 116.337 91.0552 116.518C92.2276 116.7 93.4276 116.52 94.4955 116.003C95.5633 115.486 96.4485 114.655 97.0332 113.623C97.6179 112.59 97.8744 111.403 97.7687 110.221C97.663 109.038 97.1999 107.916 96.4412 107.004C95.6826 106.091 94.6641 105.431 93.5214 105.112C92.3787 104.792 91.166 104.829 90.0443 105.216C88.9227 105.603 87.9455 106.322 87.2426 107.279Z" fill="#A0616A"/>
<path d="M59.1269 107.928L51.4459 97.9713C50.5888 96.4369 49.1831 95.2838 47.5112 94.7438C45.8393 94.2037 44.0251 94.3166 42.433 95.0598C40.841 95.8031 39.5889 97.1215 38.9285 98.7504C38.2681 100.379 38.2481 102.198 38.8727 103.841C38.867 103.846 38.867 103.846 38.8727 103.852C38.9872 104.155 39.1249 104.449 39.2845 104.732L40.3922 107.644L43.7594 116.526C43.8867 116.863 44.0855 117.169 44.3421 117.422C44.5987 117.675 44.907 117.869 45.2457 117.991C45.3651 118.035 45.4879 118.068 45.6129 118.091C46.1961 118.21 46.8027 118.115 47.3218 117.824L49.7596 116.46L58.3644 111.648C58.6774 111.47 58.949 111.228 59.1611 110.937C59.3732 110.646 59.5209 110.313 59.5944 109.961C59.6667 109.608 59.6623 109.244 59.5816 108.894C59.501 108.543 59.3459 108.214 59.1269 107.928Z" fill="#3F3D56"/>
<path d="M41.616 78.8704H47.0229L49.4082 70.6457L49.8852 78.8704H52.4694L53.8609 74.0727L54.1392 78.8704H73.3413C73.3413 69.0286 66.8624 61.0504 58.8701 61.0504H56.0872C48.095 61.0504 41.616 69.0287 41.616 78.8704Z" fill="#2F2E41"/>
<path d="M200.174 68.4155H86.8596C85.4352 68.4139 84.0695 67.847 83.0623 66.8393C82.0551 65.8315 81.4885 64.4651 81.4869 63.0399V5.3755C81.4885 3.95031 82.0551 2.58396 83.0623 1.5762C84.0695 0.568435 85.4352 0.00157165 86.8596 -3.05176e-05H200.174C201.599 0.00157017 202.964 0.568434 203.972 1.5762C204.979 2.58396 205.545 3.95031 205.547 5.3755V63.04C205.545 64.4652 204.979 65.8315 203.972 66.8393C202.964 67.847 201.599 68.4139 200.174 68.4155Z" fill="#CCCCCC"/>
<path d="M198.872 64.506H88.1621C87.4283 64.5052 86.7248 64.2132 86.2059 63.694C85.687 63.1749 85.3952 62.471 85.3943 61.7368V6.67865C85.3952 5.94447 85.687 5.24058 86.2059 4.72144C86.7248 4.20229 87.4283 3.91027 88.1621 3.90945H198.872C199.606 3.91027 200.309 4.20229 200.828 4.72144C201.347 5.24058 201.639 5.94447 201.64 6.67865V61.7368C201.639 62.471 201.347 63.1749 200.828 63.694C200.309 64.2132 199.606 64.5052 198.872 64.506Z" fill="white"/>
<path d="M93.6535 79.0151C93.3787 79.0143 93.1067 78.9593 92.8532 78.8531C92.4748 78.701 92.1511 78.438 91.9245 78.0987C91.6979 77.7594 91.579 77.3596 91.5833 76.9515V66.3533L107.546 65.9495L95.0951 78.4069C94.907 78.5987 94.6827 78.7512 94.4352 78.8556C94.1878 78.96 93.9221 79.0142 93.6535 79.0151Z" fill="#CCCCCC"/>
<path d="M185.392 31.7387H129.386C129.044 31.7392 128.705 31.6722 128.388 31.5414C128.072 31.4106 127.784 31.2187 127.542 30.9767C127.299 30.7346 127.107 30.4471 126.976 30.1307C126.845 29.8142 126.777 29.475 126.777 29.1324C126.777 28.7898 126.845 28.4506 126.976 28.1341C127.107 27.8177 127.299 27.5302 127.542 27.2881C127.784 27.046 128.072 26.8541 128.388 26.7234C128.705 26.5926 129.044 26.5256 129.386 26.5261H185.392C186.083 26.5261 186.746 26.8007 187.234 27.2895C187.723 27.7782 187.997 28.4412 187.997 29.1324C187.997 29.8236 187.723 30.4866 187.234 30.9753C186.746 31.4641 186.083 31.7387 185.392 31.7387Z" fill="#CCCCCC"/>
<path d="M167.158 20.6619H129.386C128.695 20.6619 128.033 20.3873 127.544 19.8985C127.056 19.4098 126.781 18.7469 126.781 18.0556C126.781 17.3644 127.056 16.7015 127.544 16.2127C128.033 15.7239 128.695 15.4493 129.386 15.4493H167.158C167.849 15.4493 168.511 15.7239 169 16.2127C169.488 16.7015 169.763 17.3644 169.763 18.0556C169.763 18.7469 169.488 19.4098 169 19.8985C168.511 20.3873 167.849 20.6619 167.158 20.6619Z" fill="#CCCCCC"/>
<path d="M106.202 31.7387C110.698 31.7387 114.343 28.0922 114.343 23.594C114.343 19.0958 110.698 15.4493 106.202 15.4493C101.706 15.4493 98.0617 19.0958 98.0617 23.594C98.0617 28.0922 101.706 31.7387 106.202 31.7387Z" fill="#6496FB"/>
<path d="M168.133 52.9662C169.572 52.9662 170.738 51.7993 170.738 50.3599C170.738 48.9205 169.572 47.7536 168.133 47.7536C166.694 47.7536 165.528 48.9205 165.528 50.3599C165.528 51.7993 166.694 52.9662 168.133 52.9662Z" fill="#E6E6E6"/>
<path d="M177.25 52.9662C178.689 52.9662 179.855 51.7993 179.855 50.3599C179.855 48.9205 178.689 47.7536 177.25 47.7536C175.811 47.7536 174.645 48.9205 174.645 50.3599C174.645 51.7993 175.811 52.9662 177.25 52.9662Z" fill="#E6E6E6"/>
<path d="M186.367 52.9662C187.806 52.9662 188.972 51.7993 188.972 50.3599C188.972 48.9205 187.806 47.7536 186.367 47.7536C184.929 47.7536 183.762 48.9205 183.762 50.3599C183.762 51.7993 184.929 52.9662 186.367 52.9662Z" fill="#E6E6E6"/>
<path d="M293.683 108.552H398.627C400.052 108.554 401.417 109.121 402.425 110.128C403.432 111.136 403.998 112.502 404 113.928V269.625C403.998 271.05 403.432 272.416 402.425 273.424C401.417 274.432 400.052 274.998 398.627 275H293.683C292.259 274.998 290.893 274.432 289.886 273.424C288.879 272.416 288.312 271.05 288.311 269.625V113.928C288.312 112.502 288.879 111.136 289.886 110.128C290.893 109.121 292.259 108.554 293.683 108.552Z" fill="#F2F2F2"/>
<path d="M294.986 112.462H397.325C398.059 112.462 398.762 112.754 399.281 113.274C399.8 113.793 400.092 114.497 400.093 115.231V268.321C400.092 269.056 399.8 269.759 399.281 270.279C398.762 270.798 398.059 271.09 397.325 271.091H294.986C294.252 271.09 293.549 270.798 293.03 270.279C292.511 269.759 292.219 269.056 292.218 268.321V115.231C292.219 114.497 292.511 113.793 293.03 113.274C293.549 112.754 294.252 112.462 294.986 112.462Z" fill="white"/>
<path d="M298.091 187.381H184.777C183.352 187.379 181.987 186.813 180.979 185.805C179.972 184.797 179.406 183.431 179.404 182.005V124.341C179.406 122.916 179.972 121.549 180.979 120.542C181.987 119.534 183.352 118.967 184.777 118.966H298.091C299.516 118.967 300.881 119.534 301.889 120.542C302.896 121.549 303.462 122.916 303.464 124.341V182.006C303.462 183.431 302.896 184.797 301.889 185.805C300.881 186.813 299.516 187.379 298.091 187.381Z" fill="#CCCCCC"/>
<path d="M296.789 183.472H186.079C185.345 183.471 184.642 183.179 184.123 182.66C183.604 182.14 183.312 181.437 183.311 180.702V125.644C183.312 124.91 183.604 124.206 184.123 123.687C184.642 123.168 185.345 122.876 186.079 122.875H296.789C297.523 122.876 298.226 123.168 298.745 123.687C299.264 124.206 299.556 124.91 299.557 125.644V180.702C299.556 181.437 299.264 182.14 298.745 182.66C298.226 183.179 297.523 183.471 296.789 183.472Z" fill="white"/>
<path d="M290.377 197.372L277.926 184.915L293.889 185.319V195.917C293.894 196.325 293.775 196.725 293.548 197.064C293.321 197.404 292.998 197.667 292.619 197.819C292.366 197.925 292.094 197.98 291.819 197.981C291.55 197.98 291.285 197.926 291.037 197.821C290.79 197.717 290.566 197.564 290.377 197.372Z" fill="#CCCCCC"/>
<path d="M283.309 150.704H227.303C226.961 150.705 226.622 150.638 226.305 150.507C225.989 150.376 225.701 150.184 225.459 149.942C225.216 149.7 225.024 149.413 224.893 149.096C224.762 148.78 224.694 148.441 224.694 148.098C224.694 147.755 224.762 147.416 224.893 147.1C225.024 146.783 225.216 146.496 225.459 146.254C225.701 146.012 225.989 145.82 226.305 145.689C226.622 145.558 226.961 145.491 227.303 145.492H283.309C283.652 145.491 283.991 145.558 284.307 145.689C284.624 145.82 284.911 146.012 285.154 146.254C285.396 146.496 285.588 146.783 285.719 147.1C285.851 147.416 285.918 147.755 285.918 148.098C285.918 148.441 285.851 148.78 285.719 149.096C285.588 149.413 285.396 149.7 285.154 149.942C284.911 150.184 284.624 150.376 284.307 150.507C283.991 150.638 283.652 150.705 283.309 150.704Z" fill="#CCCCCC"/>
<path d="M265.075 139.627H227.303C226.961 139.627 226.622 139.56 226.306 139.429C225.99 139.298 225.703 139.106 225.461 138.864C225.219 138.622 225.027 138.335 224.897 138.019C224.766 137.702 224.698 137.363 224.698 137.021C224.698 136.679 224.766 136.34 224.897 136.024C225.027 135.708 225.219 135.42 225.461 135.178C225.703 134.936 225.99 134.744 226.306 134.613C226.622 134.482 226.961 134.415 227.303 134.415H265.075C265.766 134.415 266.428 134.689 266.917 135.178C267.405 135.667 267.68 136.33 267.68 137.021C267.68 137.712 267.405 138.375 266.917 138.864C266.428 139.353 265.766 139.627 265.075 139.627Z" fill="#CCCCCC"/>
<path d="M204.119 150.704C208.615 150.704 212.26 147.058 212.26 142.56C212.26 138.061 208.615 134.415 204.119 134.415C199.623 134.415 195.979 138.061 195.979 142.56C195.979 147.058 199.623 150.704 204.119 150.704Z" fill="#6496FB"/>
<path d="M266.05 171.932C267.489 171.932 268.655 170.765 268.655 169.325C268.655 167.886 267.489 166.719 266.05 166.719C264.611 166.719 263.445 167.886 263.445 169.325C263.445 170.765 264.611 171.932 266.05 171.932Z" fill="#E6E6E6"/>
<path d="M275.167 171.932C276.606 171.932 277.772 170.765 277.772 169.325C277.772 167.886 276.606 166.719 275.167 166.719C273.729 166.719 272.562 167.886 272.562 169.325C272.562 170.765 273.729 171.932 275.167 171.932Z" fill="#E6E6E6"/>
<path d="M284.284 171.932C285.723 171.932 286.889 170.765 286.889 169.325C286.889 167.886 285.723 166.719 284.284 166.719C282.846 166.719 281.68 167.886 281.68 169.325C281.68 170.765 282.846 171.932 284.284 171.932Z" fill="#E6E6E6"/>
<path d="M299.336 222.283C299.787 221.6 300.382 221.024 301.08 220.596C301.777 220.168 302.56 219.898 303.373 219.806C304.186 219.713 305.009 219.8 305.785 220.06C306.561 220.32 307.27 220.748 307.863 221.312L325.537 212.184L324.439 222.467L307.823 229.558C306.81 230.492 305.49 231.021 304.112 231.046C302.735 231.071 301.396 230.589 300.35 229.692C299.304 228.795 298.623 227.546 298.436 226.18C298.249 224.815 298.569 223.428 299.336 222.283Z" fill="#FFB8B8"/>
<path d="M354.367 176.569C352.996 175.495 351.315 174.894 349.575 174.855C347.834 174.816 346.128 175.341 344.71 176.352C344.071 176.811 343.499 177.358 343.013 177.978L327.495 206.774L313.174 217.6C312.7 217.957 312.368 218.473 312.239 219.053C312.142 219.479 312.159 219.923 312.289 220.339L313.697 224.883C313.848 225.372 314.143 225.803 314.543 226.12C314.7 226.237 314.867 226.338 315.044 226.42C315.066 226.432 315.088 226.441 315.111 226.448C315.423 226.582 315.76 226.651 316.1 226.65C316.439 226.649 316.775 226.579 317.087 226.443L333.874 219.159L334.057 219.075C339.715 216.57 344.284 212.113 346.931 206.518L355.758 187.879C357.067 186.192 357.655 184.056 357.394 181.937C357.133 179.818 356.045 177.888 354.367 176.569Z" fill="#3F3D56"/>
<path d="M356.146 165.957C363.696 165.957 369.816 159.834 369.816 152.28C369.816 144.726 363.696 138.603 356.146 138.603C348.596 138.603 342.475 144.726 342.475 152.28C342.475 159.834 348.596 165.957 356.146 165.957Z" fill="#FFB8B8"/>
<path d="M365.399 243.745L365.26 242.681L364.614 237.831L363.907 232.535L361.397 232.964L360.428 233.125L359.449 233.292L359.126 233.348L334.224 237.58L331.124 235.715L331.057 235.676L331.085 235.96L331.67 242.024L334.458 270.993H369.033L365.399 243.745Z" fill="#2F2E41"/>
<path d="M374.972 188.096C374.528 183.135 372.185 178.538 368.432 175.266C364.82 172.065 360.085 170.431 355.269 170.722C350.677 171.028 347.148 172.916 344.71 176.352C343.456 178.191 342.53 180.233 341.972 182.388C339.2 192.367 336.278 206.985 334.057 219.075C332.81 225.825 331.786 231.789 331.124 235.715C331.113 235.798 331.102 235.876 331.085 235.96C330.829 237.491 330.634 238.688 330.506 239.485C330.425 239.976 330.493 240.48 330.7 240.932C330.907 241.385 331.245 241.765 331.67 242.024C331.675 242.03 331.686 242.035 331.692 242.041C334.501 243.722 337.708 244.624 340.981 244.653C344.944 244.653 349.697 243.272 354.701 238.811C355.041 238.502 355.478 238.322 355.937 238.303C356.396 238.284 356.847 238.426 357.211 238.705L357.757 239.128L363.144 243.322C363.565 243.651 364.08 243.836 364.614 243.851C364.88 243.863 365.145 243.827 365.399 243.745C365.421 243.742 365.444 243.736 365.465 243.728C365.854 243.602 366.205 243.382 366.488 243.087C366.772 242.793 366.979 242.434 367.091 242.041C367.391 240.994 367.725 239.785 368.092 238.438C368.243 237.875 368.398 237.285 368.56 236.673C369.267 233.966 370.052 230.825 370.82 227.406C373.503 215.456 376.051 200.102 374.972 188.096Z" fill="#3F3D56"/>
<path d="M352.46 245.174C352.393 244.358 352.506 243.537 352.791 242.77C353.076 242.002 353.526 241.307 354.108 240.732C354.691 240.157 355.392 239.717 356.163 239.443C356.934 239.168 357.756 239.067 358.57 239.144L366.848 221.05L372.325 229.819L363.625 245.658C363.404 247.018 362.691 248.25 361.623 249.12C360.554 249.99 359.204 250.437 357.828 250.378C356.451 250.318 355.145 249.755 354.155 248.796C353.166 247.837 352.563 246.548 352.46 245.174Z" fill="#FFB8B8"/>
<path d="M380.187 203.382L375.634 183.263C375.623 181.278 374.883 179.366 373.555 177.892C372.227 176.418 370.404 175.483 368.432 175.266C368.148 175.238 367.859 175.221 367.564 175.221C366.501 175.224 365.449 175.436 364.468 175.846C363.487 176.256 362.596 176.856 361.847 177.611C361.098 178.365 360.505 179.26 360.102 180.244C359.699 181.229 359.494 182.283 359.499 183.346L365.054 215.584L365.037 215.651L362.093 226.771L360.462 232.947C360.445 233.005 360.434 233.065 360.428 233.125C360.324 233.643 360.392 234.181 360.623 234.657C360.808 235.056 361.096 235.398 361.458 235.648L364.614 237.831L365.365 238.354C365.783 238.646 366.281 238.801 366.79 238.8C366.987 238.8 367.183 238.777 367.374 238.733C367.397 238.727 367.413 238.722 367.436 238.716C367.667 238.656 367.888 238.562 368.092 238.438C368.472 238.208 368.783 237.881 368.994 237.491L377.71 221.392C380.687 215.887 381.567 209.488 380.187 203.382Z" fill="#3F3D56"/>
<path opacity="0.2" d="M360.607 196.94L365.616 218.101L358.381 235.921L363.39 218.658L360.607 196.94Z" fill="black"/>
<path d="M367.209 160.5C368.355 160.092 369.408 159.46 370.308 158.642C370.706 158.286 371.134 157.956 371.531 157.601C375.036 154.464 376.089 149.07 374.525 144.632C372.961 140.195 369.072 136.784 364.627 135.246C360.182 133.709 355.255 133.919 350.742 135.242C345.881 136.667 341.012 139.876 339.858 144.811C339.55 146.125 339.539 147.582 340.433 148.69C340.702 149.025 341.053 149.283 341.453 149.439C343.029 150.044 343.907 148.81 345.082 148.286C346.699 147.566 348.688 148.344 349.813 149.71C350.938 151.076 351.354 152.891 351.527 154.652C351.562 155.738 351.732 156.816 352.034 157.86C352.191 158.381 352.478 158.853 352.869 159.232C353.259 159.611 353.74 159.884 354.266 160.025C355.534 160.259 356.754 159.386 357.551 158.372C358.349 157.358 358.915 156.154 359.858 155.274C360.801 154.394 362.338 153.929 363.372 154.701C363.718 154.993 364.01 155.344 364.234 155.737C365.818 158.172 365.625 158.066 367.209 160.5Z" fill="#2F2E41"/>
<path d="M301.743 210.573L292.099 214.914C291.695 215.096 291.38 215.431 291.223 215.845C291.066 216.259 291.08 216.719 291.261 217.123L292.403 219.662C292.269 219.723 292.164 219.835 292.112 219.973C292.06 220.111 292.064 220.264 292.124 220.399L292.581 221.414C292.642 221.549 292.753 221.654 292.891 221.706C293.029 221.758 293.182 221.754 293.317 221.694L293.773 222.71C293.639 222.77 293.534 222.882 293.482 223.02C293.43 223.158 293.434 223.311 293.494 223.446L293.951 224.462C294.012 224.596 294.123 224.701 294.261 224.753C294.399 224.805 294.552 224.801 294.687 224.741L300.853 238.453C301.034 238.857 301.369 239.172 301.783 239.329C302.197 239.486 302.657 239.473 303.06 239.291L312.704 234.95C313.108 234.768 313.423 234.433 313.581 234.019C313.738 233.605 313.724 233.145 313.542 232.741L303.951 211.411C303.769 211.007 303.435 210.692 303.02 210.535C302.606 210.377 302.147 210.391 301.743 210.573Z" fill="#3F3D56"/>
<path d="M311.755 231.482L310.397 228.459L306.835 220.54L303.707 213.584C303.533 213.197 303.213 212.894 302.816 212.743C302.42 212.592 301.979 212.604 301.592 212.777L296.282 215.166L293.85 216.263C293.464 216.438 293.163 216.759 293.013 217.156C292.863 217.552 292.875 217.992 293.048 218.379L296.282 225.574L297.523 228.331L301.096 236.283C301.272 236.669 301.594 236.971 301.991 237.121C302.389 237.271 302.829 237.258 303.217 237.085L310.953 233.599C311.34 233.424 311.641 233.103 311.791 232.706C311.941 232.31 311.928 231.87 311.755 231.482Z" fill="#6496FB"/>
</g>
<defs>
<clipPath id="clip0_1812_3874">
<rect width="404" height="275" fill="white"/>
</clipPath>
</defs>
</svg>
